# xmcd
#
# Track frame offsets:
# 150
# 15157
# 33714
# 49403
# 69256
# 87690
# 105222
# 120217
# 136666
# 150076
# 169805
#
# Disc length: 2574 seconds
#
#
# Revision: 0
# Processed by: cddbd v1.5PL3 Copyright (c) Steve Scherf et al.
# Submitted via: FreeRIP 2.53 
#
DISCID=770a0c0b
DTITLE=Azar, Steve - Waitin' On Joe
DYEAR=1900
DGENRE=
TTITLE0=I Don't Have To Be Me('Til Monday)
TTITLE1=How Long Is This Time Gonna Be
TTITLE2=Damn The Money
TTITLE3=Waitin' On Joe
TTITLE4=My Heart Wants To Run
TTITLE5=The Underdog
TTITLE6=One Good Reason Why
TTITLE7=Lay Your Heart Next To Mine
TTITLE8=Goin' To Beat The Devil(To See My Angel Tonight)
TTITLE9=You Don't Know How It Feels
TTITLE10=River's On The Rise
EXTD=
EXTT0=
EXTT1=
EXTT2=
EXTT3=
EXTT4=
EXTT5=
EXTT6=
EXTT7=
EXTT8=
EXTT9=
EXTT10=
PLAYORDER=
